<?xml version="1.0" encoding="UTF-8"?>
<svg version="1.1" viewBox="0 0 2048 450" width="668" height="147" xmlns="http://www.w3.org/2000/svg">
<path transform="translate(65,67)" d="m0 0h2v127l1 45 3 19 5 18 10 23 10 16 8 10 11 12 12 11 13 9 16 9 16 7 21 6 22 3h24l25-4 21-7 21-10 15-10 13-11 13-13 5 3 15 13 28 24 1 4-14 15-12 11-19 14-19 11-16 8-25 9-21 5-19 3-13 1h-21l-23-2-25-5-20-6-21-9-19-10-16-11-11-9-10-9-16-16-11-14-9-13-10-17-9-20-8-24-5-24-3-27v-17l3-27 5-23 9-27 11-23 12-19 10-13 12-14z" fill="#49BBE6"/>
<path transform="translate(221,126)" d="m0 0h10l16 2 16 5 16 8 14 11 8 8 9 13 8 16 4 14 2 20-1 16-4 16-5 12-6 11-8 10-12 12-14 9-12 6-19 5-7 1h-19l-14-2-15-5-12-6-14-10-11-11-9-13-7-14-5-17-1-6v-26l3-15 6-15 8-14 12-14 11-9 15-9 17-6 10-2zm-14 37-1 41-40 1-1 5v32l1 1h41v42h37l1-1 1-41h39l1-1 1-33-1-4h-41v-42z" fill="#49BBE6"/>
<path transform="translate(451,135)" d="m0 0h100l14 3 12 5 9 7 7 8 4 9 2 13-2 11-5 10-7 8-9 5-4 1 15 8 6 5 7 11 3 8 1 6v13l-3 12-7 11-9 8-15 7-17 4h-102l-1-14v-144zm47 35-1 1v32l11 1h17l13-1 6-3 5-5 2-6-1-9-4-6-6-3zm-1 67-1 34 1 1h43l10-4 5-6 1-3v-9l-3-6-7-5-7-2z" fill="#FDC21B"/>
<path transform="translate(1378,172)" d="m0 0h11l14 3 11 6 6 5v2h2l1-14h44v130l-4 16-6 11-7 8-8 7-14 7-14 4-8 1h-27l-16-3-16-6-12-6-2-3 15-30 5 2 16 7 14 3h15l10-3 8-6 3-4 3-14v-8l-1-1-4 5-12 7-11 3-13 1-15-3-10-4-9-7-7-7-6-10-4-9-3-13-1-16 2-16 6-16 9-13 10-8 13-6zm14 34-11 4-7 7-4 8-1 4v17l4 10 6 7 10 5h13l10-5 6-7 3-7 1-5v-14l-4-11-8-9-6-3-5-1z" fill="#FDC219"/>
<path transform="translate(200)" d="m0 0h52l34 7 24 8 20 9 17 10 17 12 14 12 11 10 7 8 3 4-1 4-14 11-14 12-14 11-4 4h-4l-7-8-9-9-17-13-19-11-20-8-19-5-13-2-20-1-23 2-22 5-18 7-14 7-11 7-6 3v-72l5-5 10-5 18-6 26-6z" fill="#49BBE6"/>
<path transform="translate(942,124)" d="m0 0h44l1 93 7-7 7-8 16-16 7-8 4-4h51l-6 8-12 12-7 8-8 8-7 8-7 7 1 4 13 22 13 21 17 28 4 6v2h-53l-10-17-13-24-3-5v-2l-5 3-8 8-1 3-1 34h-45v-183z" fill="#FDC219"/>
<path transform="translate(1576,131)" d="m0 0 18 1 16 4 16 7 14 9 9 8-1 5-12 14-11 14h-3l-8-8-14-9-12-4-9-1-12 2-14 7-7 6-7 11-4 12-1 6v12l3 13 6 11 7 8 11 7 9 3 11 1 11-2 13-5 13-9 4-4 4 2 7 8 10 10 7 9v2l-10 8-11 8-19 9-13 4-14 2h-17l-18-4-13-5-12-7-11-9-8-9-9-14-6-16-3-13-1-16 2-17 4-14 8-16 8-10 11-11 16-10 15-6 14-3z" fill="#FDC219"/>
<path transform="translate(1253,172)" d="m0 0h16l12 3 11 6 8 8 8 16 2 13v90h-44l-1-1-1-77-4-9-5-5-4-2-10-1-9 2-8 6-5 9-1 4-1 74h-45v-134h45l1 18 8-9 14-8z" fill="#FEC219"/>
<path transform="translate(683,172)" d="m0 0h13l14 2 15 5 11 6 12 11 7 10 5 12 2 7 1 9v16l-3 15-8 16-8 10-12 9-14 6-18 4h-23l-14-3-13-5-11-7-10-10-7-11-4-11-3-17v-10l3-16 4-11 9-14 10-9 14-8 13-4zm0 37-8 3-7 6-6 12-1 3v17l4 11 9 10 11 4h8l11-4 8-7 4-8 2-10v-10l-4-13-5-7-10-6-4-1z" fill="#FEC219"/>
<path transform="translate(840,172)" d="m0 0h13l14 2 13 4 11 6 10 8 7 8 6 10 4 11 2 14v12l-2 14-5 13-7 11-11 11-12 7-15 5-11 2h-23l-14-3-13-5-11-7-11-11-7-12-4-12-1-5v-27l3-12 8-16 11-12 11-7 11-5 13-3zm-1 37-10 5-7 8-4 11v18l4 10 7 8 6 4 7 2h7l10-3 8-6 4-6 3-9 1-12-2-11-6-10-7-6-8-3z" fill="#FDC219"/>
<path transform="translate(1716,172)" d="m0 0h20l16 3 12 5 9 7 7 9 4 9 2 10v92l-1 1h-43l-1-1 1-11-15 10-13 4-7 1h-12l-16-4-10-6-8-9-4-8-1-3v-24l4-10 9-10 11-6 12-3 9-1 40-1-3-9-5-6-7-3h-20l-19 5-9 4h-3l-11-28v-3l21-8 15-4zm-8 80-6 3-4 5-1 6 3 8 5 4 6 2h10l10-4 6-5 5-10-1-9z" fill="#FDC219"/>
<path transform="translate(1972,172)" d="m0 0h12l15 2 13 5 10 6 6 5 8 11 6 13 3 11 2 21v6l-1 1h-93l6 12 7 6 10 4h14l11-4 10-6 2-2 4 1 21 21-2 4-11 9-14 7-15 4-7 1h-22l-15-3-12-5-10-7-10-10-7-12-4-12-1-5-1-20 2-13 5-14 7-12 7-8 10-7 10-5 9-3zm1 32-7 3-7 5-5 9-2 5v3h50l1-2-3-10-4-6-5-4-8-3z" fill="#FDC219"/>
<path transform="translate(1894,172)" d="m0 0h7l1 2v35l-1 4-20 2-12 6-7 8-3 9-1 69-1 1h-43l-1-1v-133h45l1 19 10-11 12-7z" fill="#FDC219"/>
<path transform="translate(1096,174)" d="m0 0h44l1 1-1 133h-44z" fill="#FDC219"/>
<path transform="translate(1112,112)" d="m0 0h10l9 3 7 7 3 7 1 8-2 9-4 6-7 6-7 2h-10l-8-3-8-9-2-5v-13l3-7 6-7z" fill="#FEC219"/>
</svg>
